<svg id="DarkModeButton" xmlns="http://www.w3.org/2000/svg" viewBox="0 0 58 34"><defs><style>.cls-1{fill:#25292e}.cls-2{fill:#96a6ba}.cls-3{fill:#e0e1e2}</style></defs><title>togglebutton</title><path id="Background" class="cls-1" d="M17 0h24a17 17 0 0 1 17 17 17 17 0 0 1-17 17H17A17 17 0 0 1 0 17 17 17 0 0 1 17 0z"/><g id="Sun"><path class="cls-2" d="M15.59 13.41a3.77 3.77 0 1 0 3.77 3.77 3.78 3.78 0 0 0-3.77-3.77zM15.59 12.31a.74.74 0 0 1-.74-.74v-1.18a.74.74 0 0 1 1.47 0v1.18a.74.74 0 0 1-.73.74zM15.59 22.07a.74.74 0 0 0-.74.74V24a.74.74 0 1 0 1.47 0v-1.2a.74.74 0 0 0-.73-.73zM19 13.74a.74.74 0 0 1 0-1l.83-.83a.74.74 0 1 1 1 1l-.83.83a.74.74 0 0 1-1 0zM12.13 20.64a.74.74 0 0 0-1 0l-.83.83a.74.74 0 0 0 1 1l.83-.83a.73.73 0 0 0 0-1zM20.47 17.19a.74.74 0 0 1 .74-.74h1.18a.74.74 0 1 1 0 1.47H21.2a.74.74 0 0 1-.73-.73zM10.7 17.19a.74.74 0 0 0-.7-.74H8.79a.74.74 0 1 0 0 1.47H10a.74.74 0 0 0 .7-.73zM19 20.64a.74.74 0 0 1 1 0l.83.83a.74.74 0 0 1-1 1l-.83-.79a.74.74 0 0 1 0-1.04zM12.13 13.74a.74.74 0 0 0 0-1l-.83-.83a.74.74 0 0 0-1 1l.83.83a.74.74 0 0 0 1 0z"/></g><path id="Moon" class="cls-2" d="M35.16 20.06a7.2 7.2 0 1 0 7.31-10 6.22 6.22 0 1 1-7.31 10z"/><circle id="ToggleButton" class="cls-3" cx="16.39" cy="17" r="12"/></svg>